<svg xmlns="http://www.w3.org/2000/svg" xmlns:xlink="http://www.w3.org/1999/xlink" width="1920" height="800" viewBox="0 0 1920 800">
  <defs>
    <clipPath id="clip-morty">
      <rect width="1920" height="800"/>
    </clipPath>
  </defs>
  <g id="morty" clip-path="url(#clip-morty)">
    <g id="Group_22" data-name="Group 22" transform="translate(142.648 545.587)">
      <g id="Ellipse_2" data-name="Ellipse 2" transform="translate(4.352 2.413)" stroke="#707070" stroke-width="1">
        <ellipse cx="27" cy="27.5" rx="27" ry="27.5" stroke="none"/>
        <ellipse cx="27" cy="27.5" rx="26.5" ry="27" fill="none"/>
      </g>
      <g id="Ellipse_1" data-name="Ellipse 1" transform="translate(0.352 0.413)" stroke="#707070" stroke-width="1">
        <circle cx="27.5" cy="27.5" r="27.5" stroke="none"/>
        <circle cx="27.5" cy="27.5" r="27" fill="none"/>
      </g>
      <line id="Line_1" data-name="Line 1" y1="53.348" transform="translate(28.275 0.533)" fill="none" stroke="#fff" stroke-width="1"/>
      <line id="Line_2" data-name="Line 2" x2="52.281" transform="translate(1.6 28.275)" fill="none" stroke="#fff" stroke-width="1"/>
      <line id="Line_3" data-name="Line 3" x2="39.478" y2="37.344" transform="translate(8.002 9.069)" fill="none" stroke="#fff" stroke-width="1"/>
      <line id="Line_4" data-name="Line 4" y1="35.21" x2="40.545" transform="translate(8.002 11.203)" fill="none" stroke="#fff" stroke-width="1"/>
      <line id="Line_5" data-name="Line 5" y1="48.013" x2="22.406" transform="translate(17.605 3.734)" fill="none" stroke="#fff" stroke-width="1"/>
      <line id="Line_6" data-name="Line 6" x1="20.272" y1="49.08" transform="translate(17.605 2.667)" fill="none" stroke="#fff" stroke-width="1"/>
      <line id="Line_7" data-name="Line 7" x1="52.281" y2="17.071" transform="translate(1.6 20.806)" fill="none" stroke="#fff" stroke-width="1"/>
      <line id="Line_8" data-name="Line 8" x1="49.08" y1="21.339" transform="translate(2.667 17.605)" fill="none" stroke="#fff" stroke-width="1"/>
      <g id="Ellipse_21" data-name="Ellipse 21" transform="translate(5.352 5.413)" stroke="#707070" stroke-width="1">
        <circle cx="22.5" cy="22.5" r="22.5" stroke="none"/>
        <circle cx="22.5" cy="22.5" r="22" fill="none"/>
      </g>
      <path id="Path_52" data-name="Path 52" d="M27.5,0A27.5,27.5,0,0,1,55,27.5c0,15.188-13.505-11.487-28.693-11.487S0,42.688,0,27.5A27.5,27.5,0,0,1,27.5,0Z" transform="translate(-10.007 18.318) rotate(-30)" fill="rgba(255,255,255,0.17)"/>
    </g>
    <g id="Group_3" data-name="Group 3" transform="translate(111.229 97.43)">
      <path id="Path_47" data-name="Path 47" d="M810.287,278.323s35.19,24.6,32.07,69.027-34.978,97.959-34.978,97.959v33.384L706.947,584.66s-20.466,58.035,48.583,81.954,68.907,36.337,68.907,36.337,15.178,44.51-17.057,58-30.9,15.759-51.85,16.314-92.482-184.384-92.482-184.384L807.379,278.323Z" transform="translate(-72.055 -218.845)" fill="#e7cab0"/>
      <path id="Path_48" data-name="Path 48" d="M810.287,278.323s35.19,24.6,32.07,69.027-34.978,97.959-34.978,97.959v33.384L706.947,584.66s-20.466,58.035,48.583,81.954,68.907,36.337,68.907,36.337,15.178,44.51-17.057,58-30.9,15.759-51.85,16.314-92.482-184.384-92.482-184.384L807.379,278.323Z" transform="translate(-72.055 -218.845)" fill="rgba(0,0,0,0.17)"/>
      <path id="Path_2" data-name="Path 2" d="M554.068,308.932c45.648,4.186,88.013-39.211,169.5-44.174s88.173,6.844,109.26,40.19-1.049,80.009-5.677,97.007-24.61,37.236-24.576,50.371,15.06,19.016,15.06,19.016v99.737H730.467s-69.044,49.754-12.123,88.41c39.446,26.788,82.827,26.172,95.794,45.977,5.543,8.465,9.541,23.679,8.329,35.7-.031,10.807-42.19,63.269-147.239,22.711s-94.9-31.953-127.914-34.124S391.8,808.387,276.8,813.354,77.607,749.949,75.164,530.27s98.83-290.5,195.978-308.894S508.42,304.746,554.068,308.932Z" transform="translate(-75.121 -219.154)" fill="#e7cab0"/>
      <path id="Path_51" data-name="Path 51" d="M554.068,308.932C579.631,311.276,405.6,223.862,256.533,274,146.525,338.971,76.239,626.93,75.164,530.27c-2.442-219.679,98.83-290.5,195.978-308.894S508.42,304.746,554.068,308.932Z" transform="translate(-75.121 -219.154)" fill="rgba(255,255,255,0.15)"/>
    </g>
    <g id="Group_1" data-name="Group 1" transform="translate(328.708 542.008)">
      <g id="Ellipse_2-2" data-name="Ellipse 2" transform="translate(3.292 1.992)" stroke="#707070" stroke-width="1">
        <ellipse cx="25.5" cy="26" rx="25.5" ry="26" stroke="none"/>
        <ellipse cx="25.5" cy="26" rx="25" ry="25.5" fill="none"/>
      </g>
      <g id="Ellipse_1-2" data-name="Ellipse 1" transform="translate(0.292 -0.008)" stroke="#707070" stroke-width="1">
        <ellipse cx="25.5" cy="26" rx="25.5" ry="26" stroke="none"/>
        <ellipse cx="25.5" cy="26" rx="25" ry="25.5" fill="none"/>
      </g>
      <line id="Line_1-2" data-name="Line 1" y1="50.261" transform="translate(26.345 0.074)" fill="none" stroke="#fff" stroke-width="1"/>
      <line id="Line_2-2" data-name="Line 2" x2="49.256" transform="translate(1.215 26.21)" fill="none" stroke="#fff" stroke-width="1"/>
      <line id="Line_3-2" data-name="Line 3" x2="37.193" y2="35.183" transform="translate(7.246 8.116)" fill="none" stroke="#fff" stroke-width="1"/>
      <line id="Line_4-2" data-name="Line 4" y1="33.172" x2="38.198" transform="translate(7.246 10.127)" fill="none" stroke="#fff" stroke-width="1"/>
      <line id="Line_5-2" data-name="Line 5" y1="45.235" x2="21.11" transform="translate(16.293 3.09)" fill="none" stroke="#fff" stroke-width="1"/>
      <line id="Line_6-2" data-name="Line 6" x1="19.099" y1="46.24" transform="translate(16.293 2.085)" fill="none" stroke="#fff" stroke-width="1"/>
      <line id="Line_7-2" data-name="Line 7" x1="49.256" y2="16.083" transform="translate(1.215 19.174)" fill="none" stroke="#fff" stroke-width="1"/>
      <line id="Line_8-2" data-name="Line 8" x1="46.24" y1="20.104" transform="translate(2.22 16.158)" fill="none" stroke="#fff" stroke-width="1"/>
      <g id="Ellipse_21-2" data-name="Ellipse 21" transform="translate(4.292 4.992)" stroke="#707070" stroke-width="1">
        <circle cx="21" cy="21" r="21" stroke="none"/>
        <circle cx="21" cy="21" r="20.5" fill="none"/>
      </g>
    </g>
    <g id="Group_7" data-name="Group 7" transform="translate(1610.482 323.701)">
      <path id="Path_6" data-name="Path 6" d="M1583.374,464.43c-6.712,9.979-16.777,23.068-16.777,23.068v70.357s51.915,21.615,61.481,53.787,82.378-7.12,82.378-7.12,41.6-40.269,72.067,0,84.585,16.874,88.726,0,14.67-51.687-19.007-66.376-246.212-78.218-246.212-78.218S1590.086,454.451,1583.374,464.43Z" transform="translate(-1566.596 -444.177)" fill="#5a3f28"/>
      <g id="Group_6" data-name="Group 6" transform="translate(40.329)">
        <g id="Group_14" data-name="Group 14" transform="translate(0)">
          <path id="Path_7" data-name="Path 7" d="M1829.9,530.093v-3.5l-4.551-4.8s-1.727-11.844,7.329-12.429,10.537,1.234,14.511,3.626,4.038,12.339,0,13.608-9.759,3.5-9.759,3.5v3.2Z" transform="translate(-1605.577 -443.912)" fill="#ededed" stroke="rgba(112,112,112,0.3)" stroke-width="1"/>
          <path id="Path_8" data-name="Path 8" d="M1829.9,530.093v-3.5l-4.551-4.8s-1.727-11.844,7.329-12.429,10.537,1.234,14.511,3.626,4.038,12.339,0,13.608-9.759,3.5-9.759,3.5v3.2Z" transform="translate(-1643.775 -455.974)" fill="#ededed" stroke="rgba(112,112,112,0.3)" stroke-width="1"/>
          <path id="Path_9" data-name="Path 9" d="M1829.9,530.093v-3.5l-4.551-4.8s-1.727-11.844,7.329-12.429,10.537,1.234,14.511,3.626,4.038,12.339,0,13.608-9.759,3.5-9.759,3.5v3.2Z" transform="translate(-1690.015 -470.047)" fill="#ededed" stroke="rgba(112,112,112,0.3)" stroke-width="1"/>
          <path id="Path_10" data-name="Path 10" d="M1829.9,530.093v-3.5l-4.551-4.8s-1.727-11.844,7.329-12.429,10.537,1.234,14.511,3.626,4.038,12.339,0,13.608-9.759,3.5-9.759,3.5v3.2Z" transform="translate(-1735.249 -484.12)" fill="#ededed" stroke="rgba(112,112,112,0.3)" stroke-width="1"/>
          <path id="Path_11" data-name="Path 11" d="M1829.9,530.093v-3.5l-4.551-4.8s-1.727-11.844,7.329-12.429,10.537,1.234,14.511,3.626,4.038,12.339,0,13.608-9.759,3.5-9.759,3.5v3.2Z" transform="translate(-1777.468 -497.188)" fill="#ededed" stroke="rgba(112,112,112,0.3)" stroke-width="1"/>
          <path id="Path_12" data-name="Path 12" d="M1829.9,530.093v-3.5l-4.551-4.8s-1.727-11.844,7.329-12.429,10.537,1.234,14.511,3.626,4.038,12.339,0,13.608-9.759,3.5-9.759,3.5v3.2Z" transform="translate(-1818.682 -509.251)" fill="#ededed" stroke="rgba(112,112,112,0.3)" stroke-width="1"/>
          <g id="Ellipse_9" data-name="Ellipse 9" transform="translate(0.189 38.299)" fill="#ededed" stroke="rgba(112,112,112,0.4)" stroke-width="1">
            <ellipse cx="12.5" cy="13" rx="12.5" ry="13" stroke="none"/>
            <ellipse cx="12.5" cy="13" rx="12" ry="12.5" fill="none"/>
          </g>
          <g id="Ellipse_10" data-name="Ellipse 10" transform="translate(40.189 50.299)" fill="#ededed" stroke="rgba(112,112,112,0.4)" stroke-width="1">
            <ellipse cx="13.5" cy="13" rx="13.5" ry="13" stroke="none"/>
            <ellipse cx="13.5" cy="13" rx="13" ry="12.5" fill="none"/>
          </g>
          <g id="Ellipse_11" data-name="Ellipse 11" transform="translate(83.189 64.299)" fill="#ededed" stroke="rgba(112,112,112,0.4)" stroke-width="1">
            <ellipse cx="13.5" cy="13" rx="13.5" ry="13" stroke="none"/>
            <ellipse cx="13.5" cy="13" rx="13" ry="12.5" fill="none"/>
          </g>
          <g id="Ellipse_12" data-name="Ellipse 12" transform="translate(127.189 76.299)" fill="#ededed" stroke="rgba(112,112,112,0.4)" stroke-width="1">
            <ellipse cx="13.5" cy="14" rx="13.5" ry="14" stroke="none"/>
            <ellipse cx="13.5" cy="14" rx="13" ry="13.5" fill="none"/>
          </g>
          <g id="Ellipse_13" data-name="Ellipse 13" transform="translate(170.189 90.299)" fill="#ededed" stroke="rgba(112,112,112,0.4)" stroke-width="1">
            <circle cx="13" cy="13" r="13" stroke="none"/>
            <circle cx="13" cy="13" r="12.5" fill="none"/>
          </g>
          <g id="Ellipse_14" data-name="Ellipse 14" transform="translate(213.189 102.299)" fill="#ededed" stroke="rgba(112,112,112,0.4)" stroke-width="1">
            <ellipse cx="13.5" cy="13" rx="13.5" ry="13" stroke="none"/>
            <ellipse cx="13.5" cy="13" rx="13" ry="12.5" fill="none"/>
          </g>
          <g id="Ellipse_15" data-name="Ellipse 15" transform="translate(7.189 44.299)" fill="#ededed" stroke="rgba(112,112,112,0.4)" stroke-width="1">
            <ellipse cx="6" cy="6.5" rx="6" ry="6.5" stroke="none"/>
            <ellipse cx="6" cy="6.5" rx="5.5" ry="6" fill="none"/>
          </g>
          <g id="Ellipse_16" data-name="Ellipse 16" transform="translate(47.189 58.299)" fill="#ededed" stroke="rgba(112,112,112,0.4)" stroke-width="1">
            <ellipse cx="6.5" cy="6" rx="6.5" ry="6" stroke="none"/>
            <ellipse cx="6.5" cy="6" rx="6" ry="5.5" fill="none"/>
          </g>
          <g id="Ellipse_17" data-name="Ellipse 17" transform="translate(91.189 71.299)" fill="#ededed" stroke="rgba(112,112,112,0.4)" stroke-width="1">
            <ellipse cx="5.5" cy="6" rx="5.5" ry="6" stroke="none"/>
            <ellipse cx="5.5" cy="6" rx="5" ry="5.5" fill="none"/>
          </g>
          <g id="Ellipse_18" data-name="Ellipse 18" transform="translate(133.189 84.299)" fill="#ededed" stroke="rgba(112,112,112,0.4)" stroke-width="1">
            <ellipse cx="6.5" cy="6" rx="6.5" ry="6" stroke="none"/>
            <ellipse cx="6.5" cy="6" rx="6" ry="5.5" fill="none"/>
          </g>
          <g id="Ellipse_19" data-name="Ellipse 19" transform="translate(177.189 98.299)" fill="#ededed" stroke="rgba(112,112,112,0.4)" stroke-width="1">
            <ellipse cx="6.5" cy="5.5" rx="6.5" ry="5.5" stroke="none"/>
            <ellipse cx="6.5" cy="5.5" rx="6" ry="5" fill="none"/>
          </g>
          <g id="Ellipse_20" data-name="Ellipse 20" transform="translate(220.189 108.299)" fill="#ededed" stroke="rgba(112,112,112,0.4)" stroke-width="1">
            <circle cx="6" cy="6" r="6" stroke="none"/>
            <circle cx="6" cy="6" r="5.5" fill="none"/>
          </g>
        </g>
      </g>
      <g id="logo" transform="translate(63.461 75.784) rotate(13)">
        <path id="Path_49" data-name="Path 49" d="M28.409,11.755c-.427.4-6.98,21.2-6.98,21.2C16.157,49.591,12.05,50.678,10.557,50.765c-3.825.222-3.628-15.812-3.58-18.054a.13.13,0,0,0-.205-.107C5.609,33.446,0,37.494,0,37.768.035,39.982.133,42,.283,43.825c1.654,20.2,9.673,18.222,9.673,18.222,7.214-1.654,15.3-25.18,15.372-25.857s-.306,6.426,5.8,6.862S45.234,26.489,45.234,26.489c.193,14.946,4.117,35.133,21.617,35.3,13.4.129,18.482-22.491,18.9-24.466a.629.629,0,0,0,0-.272L84.8,33.162a.054.054,0,0,0-.1,0C79.307,51.912,65.636,50.5,65.636,50.5,43.758,48.759,57.221,4.573,58.5.516a.405.405,0,0,0-.171-.459h0a.378.378,0,0,0-.479.067C56.3,1.74,51.377,2.86,49.989,3.14a.488.488,0,0,0-.387.424c-.565,5.006-13.114,31.059-17.241,30.418-4.235-.655-1.427-23.311-1.369-23.615s-2.583,1.389-2.583,1.389Z" transform="translate(0 4.175)" fill="rgba(54,25,0,0.35)"/>
        <path id="Path_50" data-name="Path 50" d="M71.963.033C58.02,23.728,51.6,21.591,51.6,21.591c-5.269-.612.612-15.545,1.562-17.872A.125.125,0,0,0,53,3.566,3.049,3.049,0,0,1,50.566,3.5.2.2,0,0,0,50.3,3.6a18.8,18.8,0,0,1-8.4,8.485.782.782,0,0,1-1.016-.32,3.539,3.539,0,0,1-.153-1.906c.035-.275-.375-.093-.375-.093A10.519,10.519,0,0,1,36.8,11.846a.421.421,0,0,0-.28.4c-.014,10.906-5.716,14.308-5.716,14.308-2.271-1.1.5-9.192,1.467-11.824a.721.721,0,0,0-.788-.965c-3.759.577-12.393,8.756-12.393,8.756a2.889,2.889,0,0,1-3.56,0c-2.154-1.683-3.028,0-3.028,0-1.062.187-6.622,4.685-7.933,5.433a5.16,5.16,0,0,1-3.386.076.173.173,0,0,0-.216.194,10.853,10.853,0,0,1-.947,5.355.269.269,0,0,0,0,.225c.341.685,2.71.459,2.71.459C1.282,40.474,2.2,43.722,3.426,45.1a3.484,3.484,0,0,0,3.637.968c6.854-2.1,8.568-16.707,8.568-16.707A5.142,5.142,0,0,0,17.88,28.8c-1.507,4.041-1.893,8.326-.061,9.549a1.791,1.791,0,0,0,.7.262c4.16.682,7.323-4.659,7.323-4.659.468,1.781,2.622,1.593,2.622,1.593,5.714-1.027,12.179-17.8,12.179-17.8a29.839,29.839,0,0,0,3.467-1.4c-2.339,14.215,5.525,14.9,6.232,14.9.032,0,.061.009.093.011C58.293,31.5,69.89,10.964,71.833,7.4A2.3,2.3,0,0,0,72.116,6.3V.076a.086.086,0,0,0-.153-.043ZM7.41,38.219c-2.907-.239,1.773-10.447,3-10.468C13.106,27.7,9.12,38.359,7.41,38.219Zm18.12-11.007C24,30.434,22.768,30.97,22.049,30.9a.73.73,0,0,1-.641-.835,16.717,16.717,0,0,1,6.184-10.633C28.34,20.31,25.529,27.212,25.529,27.212Z" transform="translate(56.686 0)" fill="rgba(54,25,0,0.35)"/>
      </g>
    </g>
    <g id="Group_5" data-name="Group 5" transform="translate(711.804 347.909)">
      <path id="Path_1" data-name="Path 1" d="M699.794,468.464s-25.187-2.189-26.59,11.416,0,75.829,0,75.829,3.828,15.887,21.229,15.686,869.871-8.388,869.871-8.388l13.759-3.3,2.191-68.353-15.1-5.382-303.163-5.4L978.832,474.76Z" transform="translate(-672.581 -468.334)" fill="#512719"/>
      <g id="Path_41" data-name="Path 41" transform="translate(880.99 16.753)" fill="#fff">
        <path d="M 10.55901908874512 77.90678405761719 L 0.5000022649765015 77.90678405761719 L 0.5000022649765015 0.5000020265579224 L 10.81486415863037 0.5000020265579224 L 10.55901908874512 77.90678405761719 Z" stroke="none"/>
        <path d="M 0.999995231628418 1 L 0.999995231628418 77.40678405761719 L 10.06066799163818 77.40678405761719 L 10.31321239471436 1 L 0.999995231628418 1 M -4.76837158203125e-06 0 L 11.31652927398682 0 L 11.057373046875 78.40678405761719 L -4.76837158203125e-06 78.40678405761719 L -4.76837158203125e-06 0 Z" stroke="none" fill="#707070"/>
      </g>
    </g>
    <g id="Group_11" data-name="Group 11" transform="translate(345.76 321.751)">
      <g id="Group_10" data-name="Group 10">
        <path id="Path_4" data-name="Path 4" d="M308.7,452.608c-.6,10.877,0,123.129,0,123.129s-.447,14.082,10.093,14.31,65.1,0,65.1,0l-.02-147.73H318.8S309.306,441.732,308.7,452.608Z" transform="translate(-308.435 -442.312)" fill="#ededed" stroke="rgba(112,112,112,0.3)" stroke-width="1"/>
      </g>
      <g id="Group_17" data-name="Group 17" transform="translate(3.116 3.09)">
        <path id="Path_16" data-name="Path 16" d="M308.692,452.183c-.578,10.428,0,118.044,0,118.044s-.428,13.5,9.676,13.719,62.411,0,62.411,0l-.02-141.629H318.368S309.27,441.756,308.692,452.183Z" transform="translate(-308.435 -442.312)" fill="#ededed" stroke="rgba(112,112,112,0.3)" stroke-width="1"/>
        <g id="Rectangle_1" data-name="Rectangle 1" transform="translate(3.124 25.159)" fill="#ededed" stroke="rgba(112,112,112,0.3)" stroke-width="1">
          <rect width="41" height="6" stroke="none"/>
          <rect x="0.5" y="0.5" width="40" height="5" fill="none"/>
        </g>
        <g id="Rectangle_2" data-name="Rectangle 2" transform="translate(3.124 67.159)" fill="#ededed" stroke="rgba(112,112,112,0.3)" stroke-width="1">
          <rect width="41" height="6" stroke="none"/>
          <rect x="0.5" y="0.5" width="40" height="5" fill="none"/>
        </g>
        <g id="Rectangle_3" data-name="Rectangle 3" transform="translate(3.124 108.159)" fill="#ededed" stroke="rgba(112,112,112,0.3)" stroke-width="1">
          <rect width="41" height="6" stroke="none"/>
          <rect x="0.5" y="0.5" width="40" height="5" fill="none"/>
        </g>
      </g>
      <g id="Group_9" data-name="Group 9" transform="translate(45.798 10.6)">
        <path id="Union_1" data-name="Union 1" d="M5.009,124.046S0,122.753,0,119.037V84.725A16.406,16.406,0,0,1,4.273,82.59C2.881,82.066,0,80.642,0,77.823V43.512a16.406,16.406,0,0,1,4.273-2.135C2.881,40.853,0,39.428,0,36.609V2.3S3.078.147,5.009.045s14.816,0,14.816,0S22.076.516,22.076,2.3V39.365a1.612,1.612,0,0,1-1.431,2.187,2.22,2.22,0,0,1,1.431,1.959V80.579a1.612,1.612,0,0,1-1.431,2.187,2.22,2.22,0,0,1,1.431,1.959v37.068s.8,2.252-2.252,2.252Z" transform="translate(0 0)" fill="#775534" stroke="rgba(112,112,112,0.3)" stroke-width="1"/>
      </g>
    </g>
    <g id="Group_13" data-name="Group 13" transform="translate(736.869 347.91)">
      <path id="Path_17" data-name="Path 17" d="M1484.313,485l-1.529,77.234h7.942V485Z" transform="translate(-693.42 -468.247)" fill="#ededed" stroke="#707070" stroke-width="1"/>
      <path id="Path_18" data-name="Path 18" d="M1423.472,482.794v80.338h5.78V482.794Z" transform="translate(-693.729 -468.259)" fill="#ededed" stroke="#707070" stroke-width="1"/>
      <path id="Path_19" data-name="Path 19" d="M1364.411,481.794v81.662H1371V481.794Z" transform="translate(-694.037 -468.264)" fill="#ededed" stroke="#707070" stroke-width="1"/>
      <path id="Path_20" data-name="Path 20" d="M1308.2,481.794v82.721h7.6V481.794Z" transform="translate(-694.331 -468.264)" fill="#ededed" stroke="#707070" stroke-width="1"/>
      <path id="Path_21" data-name="Path 21" d="M1258.158,480.737V565.2H1264V480.737Z" transform="translate(-694.591 -468.269)" fill="#ededed" stroke="#707070" stroke-width="1"/>
      <path id="Path_22" data-name="Path 22" d="M1207.294,479.678v86.033h6.4V479.678Z" transform="translate(-694.857 -468.275)" fill="#ededed" stroke="#707070" stroke-width="1"/>
      <path id="Path_23" data-name="Path 23" d="M1161.871,478.074v88.215h5.724V478.074Z" transform="translate(-695.094 -468.283)" fill="#ededed" stroke="#707070" stroke-width="1"/>
      <path id="Path_24" data-name="Path 24" d="M1116.867,477.844v88.545h6.219V477.844Z" transform="translate(-695.328 -468.284)" fill="#ededed" stroke="#707070" stroke-width="1"/>
      <path id="Path_25" data-name="Path 25" d="M1036.095,476.031l-1.417,91.708h6.06l2.237-91.708Z" transform="translate(-695.757 -468.294)" fill="#ededed" stroke="#707070" stroke-width="1"/>
      <path id="Path_26" data-name="Path 26" d="M1076.622,477.094l-1.671,89.7h5.639l2.372-89.7Z" transform="translate(-695.547 -468.288)" fill="#ededed" stroke="#707070" stroke-width="1"/>
      <path id="Path_27" data-name="Path 27" d="M998.56,475.145,997.2,568.208h7.22l1.251-93.063Z" transform="translate(-695.952 -468.299)" fill="#ededed" stroke="#707070" stroke-width="1"/>
      <path id="Path_28" data-name="Path 28" d="M962.118,474.887v93.347h6.133V474.887Z" transform="translate(-696.135 -468.3)" fill="#ededed" stroke="#707070" stroke-width="1"/>
      <path id="Path_29" data-name="Path 29" d="M930.091,474.887l-1.715,93.626h5.388l2.364-93.626Z" transform="translate(-696.311 -468.3)" fill="#ededed" stroke="#707070" stroke-width="1"/>
      <path id="Path_30" data-name="Path 30" d="M897.71,472.643v96.32h4.4l1.163-96.32Z" transform="translate(-696.471 -468.312)" fill="#ededed" stroke="#707070" stroke-width="1"/>
      <path id="Path_31" data-name="Path 31" d="M866.3,472.643v96.932h5.95l1.193-96.932Z" transform="translate(-696.635 -468.312)" fill="#ededed" stroke="#707070" stroke-width="1"/>
      <path id="Path_32" data-name="Path 32" d="M838.515,472.643V569.15h5.206V472.643Z" transform="translate(-696.78 -468.312)" fill="#ededed" stroke="#707070" stroke-width="1"/>
      <path id="Path_33" data-name="Path 33" d="M838.515,472.643v97.512h5.206V472.643Z" transform="translate(-722.916 -469.317)" fill="#ededed" stroke="#707070" stroke-width="1"/>
      <path id="Path_35" data-name="Path 35" d="M838.515,472.643V573.384h5.206V472.643Z" transform="translate(-773.176 -470.322)" fill="#ededed" stroke="#707070" stroke-width="1"/>
      <path id="Path_36" data-name="Path 36" d="M838.515,472.643V574.39h5.206V472.643Z" transform="translate(-796.296 -471.327)" fill="#ededed" stroke="#707070" stroke-width="1"/>
      <path id="Path_37" data-name="Path 37" d="M838.515,472.643V574.39h5.206V472.643Z" transform="translate(-817.406 -472.332)" fill="#ededed" stroke="#707070" stroke-width="1"/>
      <path id="Path_38" data-name="Path 38" d="M838.515,472.643V574.7h5.206V472.643Z" transform="translate(-838.515 -472.643)" fill="#ededed" stroke="#707070" stroke-width="1"/>
      <path id="Path_39" data-name="Path 39" d="M838.515,472.643v99.736h5.206V472.643Z" transform="translate(-749.051 -470.322)" fill="#ededed" stroke="#707070" stroke-width="1"/>
    </g>
    <g id="Group_18" data-name="Group 18" transform="translate(499.384 314.872)">
      <g id="Group_8" data-name="Group 8">
        <path id="Path_5" data-name="Path 5" d="M444.663,442.347c.064,7.12,0,147.414,0,147.414s-.682,7.906,8.236,8.16,49.256,0,49.256,0,9.906,2.892,10.257-8.16,0-147.414,0-147.414,3.144-6.585-10.257-6.789-49.256,0-49.256,0S444.6,435.227,444.663,442.347Z" transform="translate(-444.651 -435.468)" stroke="#707070" stroke-width="1"/>
        <g id="Group_2" data-name="Group 2" transform="translate(23.021 27.48)">
          <g id="Ellipse_3" data-name="Ellipse 3" transform="translate(-0.404 -0.352)" fill="#fff" stroke="#707070" stroke-width="1">
            <ellipse cx="6.5" cy="6" rx="6.5" ry="6" stroke="none"/>
            <ellipse cx="6.5" cy="6" rx="6" ry="5.5" fill="none"/>
          </g>
          <g id="Ellipse_4" data-name="Ellipse 4" transform="translate(-0.404 19.648)" fill="#fff" stroke="#707070" stroke-width="1">
            <ellipse cx="6.5" cy="5.5" rx="6.5" ry="5.5" stroke="none"/>
            <ellipse cx="6.5" cy="5.5" rx="6" ry="5" fill="none"/>
          </g>
          <g id="Ellipse_5" data-name="Ellipse 5" transform="translate(-0.404 38.648)" fill="#fff" stroke="#707070" stroke-width="1">
            <ellipse cx="6.5" cy="6" rx="6.5" ry="6" stroke="none"/>
            <ellipse cx="6.5" cy="6" rx="6" ry="5.5" fill="none"/>
          </g>
          <g id="Ellipse_6" data-name="Ellipse 6" transform="translate(-0.404 56.648)" fill="#fff" stroke="#707070" stroke-width="1">
            <circle cx="6.5" cy="6.5" r="6.5" stroke="none"/>
            <circle cx="6.5" cy="6.5" r="6" fill="none"/>
          </g>
          <g id="Ellipse_7" data-name="Ellipse 7" transform="translate(-0.404 76.648)" fill="#fff" stroke="#707070" stroke-width="1">
            <ellipse cx="6.5" cy="6" rx="6.5" ry="6" stroke="none"/>
            <ellipse cx="6.5" cy="6" rx="6" ry="5.5" fill="none"/>
          </g>
          <g id="Ellipse_8" data-name="Ellipse 8" transform="translate(-0.404 95.648)" fill="#fff" stroke="#707070" stroke-width="1">
            <ellipse cx="6.5" cy="6" rx="6.5" ry="6" stroke="none"/>
            <ellipse cx="6.5" cy="6" rx="6" ry="5.5" fill="none"/>
          </g>
        </g>
      </g>
      <g id="Group_20" data-name="Group 20" transform="translate(0.012)">
        <path id="Path_5-2" data-name="Path 5" d="M444.664,442.347c.064,7.12,0,147.414,0,147.414s4.793-144.377,8.236-147.414,62.656-6.585,49.256-6.789-49.256,0-49.256,0S444.6,435.227,444.664,442.347Z" transform="translate(-444.663 -435.468)" fill="rgba(255,255,255,0.18)"/>
        <g id="Group_2-2" data-name="Group 2" transform="translate(23.009 27.48)">
          <g id="Ellipse_3-2" data-name="Ellipse 3" transform="translate(-0.404 -0.352)" fill="#fff" stroke="#707070" stroke-width="1">
            <ellipse cx="6.5" cy="6" rx="6.5" ry="6" stroke="none"/>
            <ellipse cx="6.5" cy="6" rx="6" ry="5.5" fill="none"/>
          </g>
          <g id="Ellipse_4-2" data-name="Ellipse 4" transform="translate(-0.404 19.648)" fill="#fff" stroke="#707070" stroke-width="1">
            <ellipse cx="6.5" cy="5.5" rx="6.5" ry="5.5" stroke="none"/>
            <ellipse cx="6.5" cy="5.5" rx="6" ry="5" fill="none"/>
          </g>
          <g id="Ellipse_5-2" data-name="Ellipse 5" transform="translate(-0.404 38.648)" fill="#fff" stroke="#707070" stroke-width="1">
            <ellipse cx="6.5" cy="6" rx="6.5" ry="6" stroke="none"/>
            <ellipse cx="6.5" cy="6" rx="6" ry="5.5" fill="none"/>
          </g>
          <g id="Ellipse_6-2" data-name="Ellipse 6" transform="translate(-0.404 56.648)" fill="#fff" stroke="#707070" stroke-width="1">
            <circle cx="6.5" cy="6.5" r="6.5" stroke="none"/>
            <circle cx="6.5" cy="6.5" r="6" fill="none"/>
          </g>
          <g id="Ellipse_7-2" data-name="Ellipse 7" transform="translate(-0.404 76.648)" fill="#fff" stroke="#707070" stroke-width="1">
            <ellipse cx="6.5" cy="6" rx="6.5" ry="6" stroke="none"/>
            <ellipse cx="6.5" cy="6" rx="6" ry="5.5" fill="none"/>
          </g>
          <g id="Ellipse_8-2" data-name="Ellipse 8" transform="translate(-0.404 95.648)" fill="#fff" stroke="#707070" stroke-width="1">
            <ellipse cx="6.5" cy="6" rx="6.5" ry="6" stroke="none"/>
            <ellipse cx="6.5" cy="6" rx="6" ry="5.5" fill="none"/>
          </g>
        </g>
      </g>
    </g>
    <g id="Group_21" data-name="Group 21" transform="translate(567.464 314.872)">
      <g id="Group_8-2" data-name="Group 8" transform="translate(0)">
        <path id="Path_5-3" data-name="Path 5" d="M512.717,442.347c-.063,7.12,0,147.414,0,147.414s.682,7.906-8.235,8.16-49.254,0-49.254,0-9.905,2.892-10.256-8.16,0-147.414,0-147.414-3.144-6.585,10.256-6.789,49.254,0,49.254,0S512.781,435.227,512.717,442.347Z" transform="translate(-444.651 -435.468)" stroke="#707070" stroke-width="1"/>
        <g id="Group_2-3" data-name="Group 2" transform="translate(32.43 27.366)">
          <g id="Ellipse_3-3" data-name="Ellipse 3" fill="#fff" stroke="#707070" stroke-width="1">
            <circle cx="6.124" cy="6.124" r="6.124" stroke="none"/>
            <circle cx="6.124" cy="6.124" r="5.624" fill="none"/>
          </g>
          <g id="Ellipse_4-3" data-name="Ellipse 4" transform="translate(0 19.785)" fill="#fff" stroke="#707070" stroke-width="1">
            <ellipse cx="6.124" cy="5.653" rx="6.124" ry="5.653" stroke="none"/>
            <ellipse cx="6.124" cy="5.653" rx="5.624" ry="5.153" fill="none"/>
          </g>
          <g id="Ellipse_5-3" data-name="Ellipse 5" transform="translate(0 38.627)" fill="#fff" stroke="#707070" stroke-width="1">
            <circle cx="6.124" cy="6.124" r="6.124" stroke="none"/>
            <circle cx="6.124" cy="6.124" r="5.624" fill="none"/>
          </g>
          <g id="Ellipse_6-3" data-name="Ellipse 6" transform="translate(0 57.47)" fill="#fff" stroke="#707070" stroke-width="1">
            <circle cx="6.124" cy="6.124" r="6.124" stroke="none"/>
            <circle cx="6.124" cy="6.124" r="5.624" fill="none"/>
          </g>
          <g id="Ellipse_7-3" data-name="Ellipse 7" transform="translate(0 76.312)" fill="#fff" stroke="#707070" stroke-width="1">
            <circle cx="6.124" cy="6.124" r="6.124" stroke="none"/>
            <circle cx="6.124" cy="6.124" r="5.624" fill="none"/>
          </g>
          <g id="Ellipse_8-3" data-name="Ellipse 8" transform="translate(0 96.097)" fill="#fff" stroke="#707070" stroke-width="1">
            <ellipse cx="6.124" cy="5.653" rx="6.124" ry="5.653" stroke="none"/>
            <ellipse cx="6.124" cy="5.653" rx="5.624" ry="5.153" fill="none"/>
          </g>
        </g>
      </g>
      <g id="Group_20-2" data-name="Group 20" transform="translate(8.607)">
        <path id="Path_5-4" data-name="Path 5" d="M504.123,442.347c-.064,7.12,0,147.414,0,147.414s-4.793-144.377-8.235-147.414-62.654-6.585-49.254-6.789,49.254,0,49.254,0S504.186,435.227,504.123,442.347Z" transform="translate(-444.663 -435.468)" fill="rgba(255,255,255,0.18)"/>
        <g id="Group_2-4" data-name="Group 2" transform="translate(23.569 27.366)">
          <g id="Ellipse_3-4" data-name="Ellipse 3" fill="#fff" stroke="#707070" stroke-width="1">
            <circle cx="6.124" cy="6.124" r="6.124" stroke="none"/>
            <circle cx="6.124" cy="6.124" r="5.624" fill="none"/>
          </g>
          <g id="Ellipse_4-4" data-name="Ellipse 4" transform="translate(0 19.785)" fill="#fff" stroke="#707070" stroke-width="1">
            <ellipse cx="6.124" cy="5.653" rx="6.124" ry="5.653" stroke="none"/>
            <ellipse cx="6.124" cy="5.653" rx="5.624" ry="5.153" fill="none"/>
          </g>
          <g id="Ellipse_5-4" data-name="Ellipse 5" transform="translate(0 38.627)" fill="#fff" stroke="#707070" stroke-width="1">
            <circle cx="6.124" cy="6.124" r="6.124" stroke="none"/>
            <circle cx="6.124" cy="6.124" r="5.624" fill="none"/>
          </g>
          <g id="Ellipse_6-4" data-name="Ellipse 6" transform="translate(0 57.47)" fill="#fff" stroke="#707070" stroke-width="1">
            <circle cx="6.124" cy="6.124" r="6.124" stroke="none"/>
            <circle cx="6.124" cy="6.124" r="5.624" fill="none"/>
          </g>
          <g id="Ellipse_7-4" data-name="Ellipse 7" transform="translate(0 76.312)" fill="#fff" stroke="#707070" stroke-width="1">
            <circle cx="6.124" cy="6.124" r="6.124" stroke="none"/>
            <circle cx="6.124" cy="6.124" r="5.624" fill="none"/>
          </g>
          <g id="Ellipse_8-4" data-name="Ellipse 8" transform="translate(0 96.097)" fill="#fff" stroke="#707070" stroke-width="1">
            <ellipse cx="6.124" cy="5.653" rx="6.124" ry="5.653" stroke="none"/>
            <ellipse cx="6.124" cy="5.653" rx="5.624" ry="5.153" fill="none"/>
          </g>
        </g>
      </g>
    </g>
    <g id="strings" transform="translate(349.754 344.863)">
      <path id="Path_40" data-name="Path 40" d="M312.409,465.3l42.114,2.01,1212.422,24.479,58.481,8.9" transform="translate(-312.409 -465.303)" fill="none" stroke="#f0f0f0" stroke-width="1"/>
      <path id="Path_42" data-name="Path 42" d="M312.409,467.3l42.342,2.917,1212.194,17.541,99.585,11.916" transform="translate(-312.409 -451.22)" fill="none" stroke="#f0f0f0" stroke-width="1"/>
      <path id="Path_43" data-name="Path 43" d="M312.409,469.322l42.86-3.527,1211.676,10.918,143.343,13.918" transform="translate(-312.409 -429.113)" fill="none" stroke="#f0f0f0" stroke-width="1"/>
      <path id="Path_44" data-name="Path 44" d="M312.409,469.324l41.941-3.962,1211.412,4.712,187.59,13.522" transform="translate(-312.409 -409.011)" fill="none" stroke="#f0f0f0" stroke-width="1"/>
      <path id="Path_45" data-name="Path 45" d="M312.9,465.348l41.119-1.086,1275.6-3.424,167.128,12.69" transform="translate(-312.407 -385.877)" fill="none" stroke="#f0f0f0" stroke-width="1"/>
      <path id="Path_46" data-name="Path 46" d="M312.9,465.5l41.492-3.978L1629.124,450.3l210.838,10.331" transform="translate(-312.407 -361.907)" fill="none" stroke="#f0f0f0" stroke-width="1"/>
    </g>
    <g id="Rectangle_4" data-name="Rectangle 4" transform="translate(1653 418)" fill="#ededed" stroke="#707070" stroke-width="1">
      <rect width="14" height="18" stroke="none"/>
      <rect x="0.5" y="0.5" width="13" height="17" fill="none"/>
    </g>
    <g id="Group_19" data-name="Group 19" transform="translate(318.986 532.93)">
      <g id="Ellipse_2-3" data-name="Ellipse 2" transform="translate(13.014 11.07)" stroke="#707070" stroke-width="1">
        <ellipse cx="25.5" cy="26" rx="25.5" ry="26" stroke="none"/>
        <ellipse cx="25.5" cy="26" rx="25" ry="25.5" fill="none"/>
      </g>
      <g id="Ellipse_1-3" data-name="Ellipse 1" transform="translate(10.014 9.07)" stroke="#707070" stroke-width="1">
        <ellipse cx="25.5" cy="26" rx="25.5" ry="26" stroke="none"/>
        <ellipse cx="25.5" cy="26" rx="25" ry="25.5" fill="none"/>
      </g>
      <line id="Line_1-3" data-name="Line 1" y1="50.261" transform="translate(36.066 9.153)" fill="none" stroke="#fff" stroke-width="1"/>
      <line id="Line_2-3" data-name="Line 2" x2="49.256" transform="translate(10.936 35.289)" fill="none" stroke="#fff" stroke-width="1"/>
      <line id="Line_3-3" data-name="Line 3" x2="37.193" y2="35.183" transform="translate(16.967 17.195)" fill="none" stroke="#fff" stroke-width="1"/>
      <line id="Line_4-3" data-name="Line 4" y1="33.172" x2="38.198" transform="translate(16.967 19.205)" fill="none" stroke="#fff" stroke-width="1"/>
      <line id="Line_5-3" data-name="Line 5" y1="45.235" x2="21.11" transform="translate(26.014 12.169)" fill="none" stroke="#fff" stroke-width="1"/>
      <line id="Line_6-3" data-name="Line 6" x1="19.099" y1="46.24" transform="translate(26.014 11.164)" fill="none" stroke="#fff" stroke-width="1"/>
      <line id="Line_7-3" data-name="Line 7" x1="49.256" y2="16.083" transform="translate(10.936 28.252)" fill="none" stroke="#fff" stroke-width="1"/>
      <line id="Line_8-3" data-name="Line 8" x1="46.24" y1="20.104" transform="translate(11.941 25.237)" fill="none" stroke="#fff" stroke-width="1"/>
      <g id="Ellipse_21-3" data-name="Ellipse 21" transform="translate(14.014 14.07)" stroke="#707070" stroke-width="1">
        <circle cx="21" cy="21" r="21" stroke="none"/>
        <circle cx="21" cy="21" r="20.5" fill="none"/>
      </g>
      <path id="Path_52-2" data-name="Path 52" d="M25.909,0A25.909,25.909,0,0,1,51.817,25.909c0,14.309-12.724-10.823-27.033-10.823S0,40.217,0,25.909A25.909,25.909,0,0,1,25.909,0Z" transform="translate(0 25.909) rotate(-30)" fill="rgba(255,255,255,0.17)"/>
    </g>
    <g id="Rectangle_9" data-name="Rectangle 9" transform="translate(416 565)" fill="#ededed" stroke="rgba(112,112,112,0.4)" stroke-width="1">
      <rect width="26" height="11" stroke="none"/>
      <rect x="0.5" y="0.5" width="25" height="10" fill="none"/>
    </g>
    <g id="Ellipse_22" data-name="Ellipse 22" transform="translate(427 562)" stroke="#707070" stroke-width="1">
      <ellipse cx="9" cy="8.5" rx="9" ry="8.5" stroke="none"/>
      <ellipse cx="9" cy="8.5" rx="8.5" ry="8" fill="none"/>
    </g>
    <path id="Path_53" data-name="Path 53" d="M8.479,0c4.683,0,1.766,3.889-2.448,5.35S0,13.162,0,8.479A8.479,8.479,0,0,1,8.479,0Z" transform="translate(427.67 561.754)" fill="rgba(255,255,255,0.2)"/>
    <g id="Group_23" data-name="Group 23" transform="translate(236.986 532.93)">
      <g id="Ellipse_2-4" data-name="Ellipse 2" transform="translate(13.014 11.07)" stroke="#707070" stroke-width="1">
        <ellipse cx="25.5" cy="26" rx="25.5" ry="26" stroke="none"/>
        <ellipse cx="25.5" cy="26" rx="25" ry="25.5" fill="none"/>
      </g>
      <g id="Ellipse_1-4" data-name="Ellipse 1" transform="translate(10.014 9.07)" stroke="#707070" stroke-width="1">
        <ellipse cx="25.5" cy="26" rx="25.5" ry="26" stroke="none"/>
        <ellipse cx="25.5" cy="26" rx="25" ry="25.5" fill="none"/>
      </g>
      <line id="Line_1-4" data-name="Line 1" y1="50.261" transform="translate(36.066 9.153)" fill="none" stroke="#fff" stroke-width="1"/>
      <line id="Line_2-4" data-name="Line 2" x2="49.256" transform="translate(10.936 35.289)" fill="none" stroke="#fff" stroke-width="1"/>
      <line id="Line_3-4" data-name="Line 3" x2="37.193" y2="35.183" transform="translate(16.967 17.195)" fill="none" stroke="#fff" stroke-width="1"/>
      <line id="Line_4-4" data-name="Line 4" y1="33.172" x2="38.198" transform="translate(16.967 19.205)" fill="none" stroke="#fff" stroke-width="1"/>
      <line id="Line_5-4" data-name="Line 5" y1="45.235" x2="21.11" transform="translate(26.014 12.169)" fill="none" stroke="#fff" stroke-width="1"/>
      <line id="Line_6-4" data-name="Line 6" x1="19.099" y1="46.24" transform="translate(26.014 11.164)" fill="none" stroke="#fff" stroke-width="1"/>
      <line id="Line_7-4" data-name="Line 7" x1="49.256" y2="16.083" transform="translate(10.936 28.252)" fill="none" stroke="#fff" stroke-width="1"/>
      <line id="Line_8-4" data-name="Line 8" x1="46.24" y1="20.104" transform="translate(11.941 25.237)" fill="none" stroke="#fff" stroke-width="1"/>
      <g id="Ellipse_21-4" data-name="Ellipse 21" transform="translate(14.014 14.07)" stroke="#707070" stroke-width="1">
        <circle cx="21" cy="21" r="21" stroke="none"/>
        <circle cx="21" cy="21" r="20.5" fill="none"/>
      </g>
      <path id="Path_52-3" data-name="Path 52" d="M25.909,0A25.909,25.909,0,0,1,51.817,25.909c0,14.309-12.724-10.823-27.033-10.823S0,40.217,0,25.909A25.909,25.909,0,0,1,25.909,0Z" transform="translate(0 25.909) rotate(-30)" fill="rgba(255,255,255,0.17)"/>
    </g>
  </g>
</svg>
